<svg xmlns="http://www.w3.org/2000/svg" version="1.1" xmlns:xlink="http://www.w3.org/1999/xlink" xmlns:svgjs="http://svgjs.com/svgjs" width="1467" height="583" preserveAspectRatio="none" viewBox="0 0 1467 583"><g mask="url(&quot;#SvgjsMask1154&quot;)" fill="none"><rect width="1467" height="583" x="0" y="0" fill="rgba(15, 58, 103, 1)"></rect><path d="M0,388.499C89.482,400.736,182.107,448.587,264.459,411.506C348.545,373.644,405.343,284.923,428.355,195.623C449.979,111.708,401.038,29.793,384.757,-55.32C369.39,-135.651,382.639,-223.851,335.349,-290.581C286.321,-359.763,207.239,-405.831,124.2,-422.986C44.227,-439.508,-32.138,-397.681,-112.488,-383.1C-204.41,-366.419,-310.888,-391.559,-382.113,-331.103C-454.804,-269.403,-474.031,-164.323,-482.156,-69.324C-489.986,22.219,-476.007,117.269,-427.115,195.057C-381.073,268.31,-300.544,309.324,-221.73,345.019C-151.702,376.735,-76.166,378.083,0,388.499" fill="#0b2c4d"></path><path d="M1467 1028.079C1548.999 1027.949 1615.451 963.865 1676.808 909.467 1731.08 861.351 1763.019 797.6659999999999 1798.341 734.318 1836.895 665.174 1900.439 600.566 1892.9940000000001 521.751 1885.504 442.459 1821.062 380.267 1760.058 329.06399999999996 1705.069 282.91 1636.856 256.208 1565.657 247.00400000000002 1501.364 238.69299999999998 1440.312 262.015 1377.933 279.666 1314.896 297.503 1247.806 307.08 1198.983 350.762 1146.847 397.408 1102.666 460.158 1098.167 529.97 1093.7559999999999 598.41 1149.028 652.859 1175.434 716.154 1202.987 782.1990000000001 1207.899 857.852 1256.766 910.131 1312.771 970.047 1384.985 1028.209 1467 1028.079" fill="#134981"></path></g><defs><mask id="SvgjsMask1154"><rect width="1467" height="583" fill="#ffffff"></rect></mask></defs></svg>